<svg xmlns="http://www.w3.org/2000/svg" xmlns:xlink="http://www.w3.org/1999/xlink" version="1.1" width="256" height="256" viewBox="0 0 256 256" xml:space="preserve">
<g style="stroke: none; stroke-width: 0; stroke-dasharray: none; stroke-linecap: butt; stroke-linejoin: miter; stroke-miterlimit: 10; fill: none; fill-rule: nonzero; opacity: 1;" transform="translate(1.4065934065934016 1.4065934065934016) scale(2.81 2.81)">
	<path d="M 3.558 52.188 c -0.262 0 -0.484 0.19 -0.525 0.448 L 0.006 71.834 c -0.042 0.268 0.141 0.52 0.409 0.562 c 0.025 0.004 0.051 0.006 0.076 0.006 h 3.59 c 0.261 0 0.484 -0.19 0.525 -0.448 l 0.889 -5.638 c 0.041 -0.258 0.263 -0.448 0.525 -0.448 h 3.264 c 3.814 0 7.051 -2.783 7.643 -6.553 c 0.596 -3.803 -2.374 -7.118 -6.585 -7.127 H 3.558 z M 7.048 56.473 h 2.612 c 2.15 0 2.85 1.269 2.629 2.672 c -0.221 1.406 -1.309 2.442 -3.389 2.442 H 6.242 L 7.048 56.473 z M 24.229 57.778 c -0.907 0.003 -1.95 0.189 -3.121 0.677 c -2.686 1.12 -3.976 3.434 -4.524 5.121 c 0 0 -1.744 5.147 2.196 7.975 c 0 0 3.654 2.722 7.766 -0.168 l -0.071 0.451 c -0.042 0.268 0.141 0.52 0.409 0.562 c 0.025 0.004 0.05 0.006 0.075 0.006 h 3.408 c 0.262 0 0.484 -0.19 0.525 -0.448 l 2.073 -13.147 c 0.042 -0.268 -0.14 -0.52 -0.409 -0.562 c -0.025 -0.004 -0.051 -0.006 -0.076 -0.006 h -3.408 c -0.262 0 -0.484 0.19 -0.525 0.448 l -0.111 0.708 C 28.437 59.394 26.948 57.768 24.229 57.778 L 24.229 57.778 z M 24.34 61.931 c 0.391 0 0.749 0.054 1.071 0.157 c 1.471 0.472 2.304 1.885 2.063 3.416 c -0.298 1.886 -1.844 3.274 -3.827 3.274 c -0.391 0 -0.749 -0.054 -1.071 -0.157 c -1.47 -0.472 -2.309 -1.885 -2.068 -3.416 C 20.806 63.32 22.357 61.931 24.34 61.931 L 24.34 61.931 z" style="stroke: none; stroke-width: 1; stroke-dasharray: none; stroke-linecap: butt; stroke-linejoin: miter; stroke-miterlimit: 10; fill: rgb(0,48,135); fill-rule: nonzero; opacity: 1;" transform=" matrix(1 0 0 1 0 0) " stroke-linecap="round"/>
	<path d="M 52.638 52.188 c -0.262 0 -0.484 0.19 -0.525 0.448 l -3.027 19.198 c -0.042 0.268 0.141 0.52 0.409 0.562 c 0.025 0.004 0.051 0.006 0.076 0.006 h 3.59 c 0.261 0 0.484 -0.19 0.525 -0.448 l 0.889 -5.638 c 0.041 -0.258 0.263 -0.448 0.525 -0.448 h 3.264 c 3.814 0 7.051 -2.783 7.642 -6.553 c 0.597 -3.803 -2.374 -7.118 -6.584 -7.127 H 52.638 z M 56.128 56.473 h 2.612 c 2.15 0 2.85 1.269 2.629 2.672 c -0.221 1.406 -1.308 2.442 -3.389 2.442 h -2.658 L 56.128 56.473 z M 73.308 57.778 c -0.907 0.003 -1.95 0.189 -3.121 0.677 c -2.686 1.12 -3.976 3.434 -4.524 5.121 c 0 0 -1.743 5.147 2.197 7.975 c 0 0 3.653 2.722 7.766 -0.168 l -0.071 0.451 c -0.042 0.268 0.141 0.52 0.409 0.562 c 0.025 0.004 0.051 0.006 0.076 0.006 h 3.408 c 0.262 0 0.484 -0.19 0.525 -0.448 l 2.074 -13.147 c 0.042 -0.268 -0.14 -0.52 -0.409 -0.562 c -0.025 -0.004 -0.051 -0.006 -0.077 -0.006 h -3.408 c -0.262 0 -0.484 0.19 -0.525 0.448 l -0.111 0.708 C 77.517 59.394 76.028 57.768 73.308 57.778 L 73.308 57.778 z M 73.419 61.931 c 0.391 0 0.749 0.054 1.071 0.157 c 1.471 0.472 2.304 1.885 2.063 3.416 c -0.298 1.886 -1.844 3.274 -3.827 3.274 c -0.391 0 -0.749 -0.054 -1.071 -0.157 c -1.47 -0.472 -2.309 -1.885 -2.068 -3.416 C 69.885 63.32 71.436 61.931 73.419 61.931 L 73.419 61.931 z" style="stroke: none; stroke-width: 1; stroke-dasharray: none; stroke-linecap: butt; stroke-linejoin: miter; stroke-miterlimit: 10; fill: rgb(0,112,224); fill-rule: nonzero; opacity: 1;" transform=" matrix(1 0 0 1 0 0) " stroke-linecap="round"/>
	<path d="M 34.583 58.238 c -0.27 0 -0.462 0.264 -0.38 0.521 l 3.737 11.595 l -3.379 5.464 c -0.164 0.265 0.027 0.608 0.338 0.608 h 3.993 c 0.232 0 0.448 -0.122 0.568 -0.32 l 10.435 -17.263 c 0.16 -0.265 -0.031 -0.604 -0.341 -0.604 h -3.993 c -0.235 0 -0.452 0.124 -0.571 0.326 l -4.108 6.935 l -2.085 -6.884 c -0.068 -0.224 -0.275 -0.377 -0.508 -0.377 L 34.583 58.238 z" style="stroke: none; stroke-width: 1; stroke-dasharray: none; stroke-linecap: butt; stroke-linejoin: miter; stroke-miterlimit: 10; fill: rgb(0,48,135); fill-rule: nonzero; opacity: 1;" transform=" matrix(1 0 0 1 0 0) " stroke-linecap="round"/>
	<path d="M 85.919 52.188 c -0.261 0 -0.484 0.19 -0.525 0.448 l -3.028 19.198 c -0.042 0.268 0.14 0.52 0.409 0.562 c 0.025 0.004 0.051 0.006 0.077 0.006 h 3.59 c 0.261 0 0.484 -0.19 0.525 -0.448 l 3.027 -19.198 c 0.042 -0.268 -0.141 -0.52 -0.409 -0.562 c -0.025 -0.004 -0.05 -0.006 -0.075 -0.006 H 85.919 z" style="stroke: none; stroke-width: 1; stroke-dasharray: none; stroke-linecap: butt; stroke-linejoin: miter; stroke-miterlimit: 10; fill: rgb(0,112,224); fill-rule: nonzero; opacity: 1;" transform=" matrix(1 0 0 1 0 0) " stroke-linecap="round"/>
	<path d="M 42.022 20.311 c -0.478 0 -0.884 0.348 -0.959 0.82 L 39.47 31.238 c 0.074 -0.472 0.481 -0.82 0.959 -0.82 h 4.67 c 4.7 0 8.688 -3.428 9.416 -8.075 c 0.054 -0.347 0.085 -0.697 0.092 -1.048 c -1.194 -0.626 -2.597 -0.985 -4.135 -0.985 L 42.022 20.311 z" style="stroke: none; stroke-width: 1; stroke-dasharray: none; stroke-linecap: butt; stroke-linejoin: miter; stroke-miterlimit: 10; fill: rgb(0,28,100); fill-rule: nonzero; opacity: 1;" transform=" matrix(1 0 0 1 0 0) " stroke-linecap="round"/>
	<path d="M 54.607 21.296 c -0.007 0.351 -0.038 0.701 -0.092 1.048 c -0.729 4.646 -4.717 8.075 -9.416 8.075 h -4.67 c -0.478 0 -0.885 0.347 -0.959 0.82 l -1.465 9.288 l -0.918 5.827 c -0.068 0.43 0.225 0.834 0.654 0.902 c 0.041 0.007 0.083 0.01 0.124 0.01 h 5.069 c 0.478 0 0.884 -0.348 0.959 -0.82 l 1.335 -8.468 c 0.075 -0.472 0.482 -0.82 0.96 -0.82 h 2.984 c 4.7 0 8.688 -3.428 9.416 -8.075 C 59.106 25.785 57.445 22.785 54.607 21.296 L 54.607 21.296 z" style="stroke: none; stroke-width: 1; stroke-dasharray: none; stroke-linecap: butt; stroke-linejoin: miter; stroke-miterlimit: 10; fill: rgb(0,112,224); fill-rule: nonzero; opacity: 1;" transform=" matrix(1 0 0 1 0 0) " stroke-linecap="round"/>
	<path d="M 36.264 13.574 c -0.478 0 -0.885 0.347 -0.959 0.819 l -3.977 25.221 c -0.075 0.479 0.295 0.912 0.779 0.912 h 5.898 l 1.465 -9.288 l 1.594 -10.107 c 0.075 -0.472 0.481 -0.819 0.959 -0.82 h 8.45 c 1.538 0 2.94 0.359 4.135 0.985 c 0.082 -4.23 -3.409 -7.722 -8.207 -7.722 L 36.264 13.574 z" style="stroke: none; stroke-width: 1; stroke-dasharray: none; stroke-linecap: butt; stroke-linejoin: miter; stroke-miterlimit: 10; fill: rgb(0,48,135); fill-rule: nonzero; opacity: 1;" transform=" matrix(1 0 0 1 0 0) " stroke-linecap="round"/>
</g>
</svg>