<svg width="640" height="640" viewBox="0 0 640 640" fill="none" xmlns="http://www.w3.org/2000/svg">
<g clip-path="url(#clip0_63_5)">
<path d="M443.854 466.043C450.327 468.976 457.153 471.374 464.293 473.161C465.007 473.34 465.722 473.509 466.436 473.674C460.014 481.463 453.185 489.073 445.928 496.462C438.18 493.835 430.778 490.608 423.759 486.848C430.878 480.133 437.57 473.183 443.854 466.043Z" fill="black"/>
<path d="M543.889 319.91C539.471 336.245 534.01 352.934 527.334 369.646L487.259 403.196C497.234 384.582 505.279 365.599 511.694 346.845L543.889 319.91Z" fill="black"/>
<path d="M533.975 216.039C542.878 218.597 551.362 221.932 559.372 225.951C558.802 235.466 557.882 245.503 556.552 255.944C549.215 251.369 541.289 247.543 532.852 244.594C533.597 235.111 533.958 226.142 534 217.823C534.002 217.226 533.991 216.631 533.975 216.039Z" fill="black"/>
<path d="M320 64C324.6 64 329.2 65.0004 333.4 66.9004L521.8 146.8C543.8 156.1 560.2 177.8 560.1 204C560.065 210.935 559.832 218.273 559.372 225.951C551.362 221.932 542.878 218.597 533.975 216.039C533.334 193.481 518.964 174.904 499.849 166.824L331.859 95.5859C328.114 93.8919 324.012 93 319.911 93C315.809 93 311.796 93.8919 308.051 95.5859L140.151 166.824C120.534 175.116 105.911 194.464 106.001 217.823C106.446 306.269 142.737 468.094 296.46 541.65C311.351 548.783 328.649 548.783 343.54 541.65C374.949 526.612 401.456 507.883 423.759 486.848C430.778 490.608 438.18 493.835 445.928 496.462C419.045 523.83 386.277 548.154 346.5 567.2C329.8 575.2 310.4 575.2 293.7 567.2C121.3 484.7 80.6001 303.2 80.1001 204C80.0001 177.8 96.3999 156.1 118.4 146.8L306.7 66.9004C310.9 65.0005 315.4 64.0001 320 64ZM559.372 225.951C619.545 256.146 652.93 324.964 635.898 392.998C616.179 471.762 536.363 519.617 457.599 499.898C453.628 498.904 449.737 497.754 445.928 496.462C453.185 489.073 460.014 481.463 466.436 473.674C529.736 488.31 593.316 449.593 609.161 386.305C622.07 334.739 599.344 282.629 556.552 255.944C557.882 245.503 558.802 235.466 559.372 225.951ZM350.7 321.6C370.418 242.836 450.235 194.981 528.999 214.699C530.672 215.118 532.33 215.567 533.975 216.039C533.991 216.631 534.002 217.226 534 217.823C533.958 226.142 533.597 235.111 532.852 244.594C529.419 243.394 525.902 242.338 522.305 241.438C458.303 225.414 393.46 264.29 377.437 328.293C363.201 385.156 392.301 442.68 443.854 466.043C437.57 473.183 430.878 480.133 423.759 486.848C365.778 455.784 333.998 388.316 350.7 321.6ZM511.694 346.845C505.279 365.598 497.234 384.581 487.259 403.195L470.926 416.87C467.848 419.473 463.781 420.586 459.812 419.889C455.843 419.191 452.348 416.837 450.302 413.424L426.96 374.49C423.035 367.943 425.154 359.477 431.687 355.607C438.22 351.738 446.7 353.802 450.57 360.335L465.603 385.408L511.694 346.845ZM544.688 319.198C550.525 314.326 559.215 315.08 564.087 320.917C568.96 326.754 568.205 335.445 562.368 340.317L527.335 369.645C534.011 352.933 539.472 336.244 543.889 319.909L544.673 319.254L544.688 319.198Z" fill="black"/>
</g>
<defs>
<clipPath id="clip0_63_5">
<rect width="640" height="640" fill="white"/>
</clipPath>
</defs>
</svg>
