<svg width="661" height="532" viewBox="0 0 661 532" fill="none" xmlns="http://www.w3.org/2000/svg">
<path d="M487 62C487 37.6995 467.301 18 443 18H62C37.6995 18 18 37.6995 18 62V402C18 419.673 32.3269 434 50 434V452C22.3858 452 0 429.614 0 402V62C6.1857e-06 27.7584 27.7583 2.06163e-06 62 0H443C477.242 0 505 27.7583 505 62V347H487V62Z" fill="black"/>
<path d="M407 434V452H227V434H407Z" fill="black"/>
<path d="M643 415V269.398C643 266.108 642.146 262.874 640.521 260.013L579.224 152.115C575.847 146.172 569.539 142.5 562.704 142.5H502.5V124.5H562.704C576.015 124.5 588.3 131.65 594.875 143.224L656.171 251.122C659.336 256.693 661 262.991 661 269.398V415C661 435.434 644.434 452 624 452H576.5V434H624C634.493 434 643 425.493 643 415Z" fill="black"/>
<path d="M213 438C213 396.026 178.974 362 137 362C95.0264 362 61 396.026 61 438C61 479.974 95.0264 514 137 514V532C85.0852 532 43 489.915 43 438C43 386.085 85.0852 344 137 344C188.915 344 231 386.085 231 438C231 489.915 188.915 532 137 532V514C178.974 514 213 479.974 213 438Z" fill="black"/>
<path d="M572 431C572 389.026 537.974 355 496 355C454.026 355 420 389.026 420 431C420 472.974 454.026 507 496 507V525C444.085 525 402 482.915 402 431C402 379.085 444.085 337 496 337C547.915 337 590 379.085 590 431C590 482.915 547.915 525 496 525V507C537.974 507 572 472.974 572 431Z" fill="black"/>
</svg>
